<?xml version="1.0" encoding="UTF-8" standalone="no"?>
<!-- Generator: Adobe Illustrator 16.0.0, SVG Export Plug-In . SVG Version: 6.00 Build 0)  -->

<svg
   xmlns:dc="http://purl.org/dc/elements/1.1/"
   xmlns:cc="http://creativecommons.org/ns#"
   xmlns:rdf="http://www.w3.org/1999/02/22-rdf-syntax-ns#"
   xmlns:svg="http://www.w3.org/2000/svg"
   xmlns="http://www.w3.org/2000/svg"
   xmlns:sodipodi="http://sodipodi.sourceforge.net/DTD/sodipodi-0.dtd"
   xmlns:inkscape="http://www.inkscape.org/namespaces/inkscape"
   version="1.1"
   id="Capa_1"
   x="0px"
   y="0px"
   width="464.996px"
   height="464.996px"
   viewBox="0 0 464.996 464.996"
   style="enable-background:new 0 0 464.996 464.996;"
   xml:space="preserve"
   inkscape:version="0.48.4 r9939"
   sodipodi:docname="people-7.svg"><metadata
     id="metadata53"><rdf:RDF><cc:Work
         rdf:about=""><dc:format>image/svg+xml</dc:format><dc:type
           rdf:resource="http://purl.org/dc/dcmitype/StillImage" /><dc:title></dc:title></cc:Work></rdf:RDF></metadata><defs
     id="defs51" /><sodipodi:namedview
     pagecolor="#ffffff"
     bordercolor="#666666"
     borderopacity="1"
     objecttolerance="10"
     gridtolerance="10"
     guidetolerance="10"
     inkscape:pageopacity="0"
     inkscape:pageshadow="2"
     inkscape:window-width="1861"
     inkscape:window-height="1056"
     id="namedview49"
     showgrid="false"
     inkscape:zoom="0.64"
     inkscape:cx="378.95586"
     inkscape:cy="350.93932"
     inkscape:window-x="59"
     inkscape:window-y="24"
     inkscape:window-maximized="1"
     inkscape:current-layer="g5" /><g
     id="g5"><path
       inkscape:connector-curvature="0"
       id="path7"
       d="m 153.91,122.664 c 25.501,0 46.252,-20.748 46.252,-46.251 0,-25.503 -20.751,-46.251 -46.252,-46.251 -25.502,0 -46.25,20.748 -46.25,46.251 0,25.503 20.748,46.251 46.25,46.251 z"
       inkscape:export-filename="/home/egor/Документы/MEDIA/icons/constructions/svg/work--floor.png"
       inkscape:export-xdpi="78"
       inkscape:export-ydpi="78" /><path
       inkscape:connector-curvature="0"
       id="path9"
       d="m 157.709,325.8 c -0.514,-0.514 -1.264,-0.711 -1.963,-0.509 -0.698,0.199 -1.233,0.761 -1.398,1.468 l -17.874,77.923 c -1.342,5.722 -0.375,11.623 2.723,16.617 3.098,4.994 7.953,8.483 13.674,9.824 1.66,0.389 3.357,0.586 5.045,0.586 10.254,0 19.053,-6.983 21.396,-16.983 l 12.213,-53.772 c 0.156,-0.674 -0.044,-1.381 -0.534,-1.871 L 157.709,325.8 z"
       inkscape:export-filename="/home/egor/Документы/MEDIA/icons/constructions/svg/work--floor.png"
       inkscape:export-xdpi="78"
       inkscape:export-ydpi="78" /><path
       inkscape:connector-curvature="0"
       id="path11"
       d="m 115.21665,283.1416 -17.7804,-10.62301 -2.85057,1.22433 c -3.38398,1.68366 -5.345169,1.00415 -7.112459,0.11296 -1.76729,-0.89118 -11.650505,-5.87344 -11.650505,-5.87344 -0.61068,-0.18289 -1.272411,-0.0637 -1.780878,0.32146 -0.508946,0.38323 -0.802415,0.98827 -0.793528,1.62471 l 0.119125,7.85464 -37.311247,136.41652 c -2.106541,5.4873 -1.948438,11.46481 0.442471,16.83206 2.390177,5.36846 6.728769,9.48411 12.215592,11.58871 4.222628,1.61962 8.765749,1.90546 13.138317,0.82534 6.992809,-1.72738 12.706799,-6.76776 15.28538,-13.48825 L 116.26627,285.67687 c 0.3498,-1.06085 -0.11553,-1.96051 -1.04962,-2.53527 z"
       inkscape:export-filename="/home/egor/Документы/MEDIA/icons/constructions/svg/work--floor.png"
       inkscape:export-xdpi="78"
       inkscape:export-ydpi="78" /><path
       inkscape:connector-curvature="0"
       id="path13"
       d="M 261.496,384.54376 229.191,360.198 157.507,288.513 227.605,222.547 c 6.152,-5.79 7.144,-15.046 2.358,-22.009 l -38.686,-56.289 c -2.563,-3.731 -6.43,-6.246 -10.863,-7.076 L 108.222,121.7 c -0.033,-0.007 -0.066,-0.013 -0.1,-0.019 -1.16,-0.248 -2.35,-0.374 -3.544,-0.374 -3.245,0 -6.399,0.912 -9.118,2.637 l -65.966,41.828 c -4.381,2.779 -7.222,7.331 -7.794,12.489 -0.569,5.159 1.209,10.221 4.877,13.889 l 54.406,54.406 c 3.211,3.211 7.479,4.979 12.021,4.979 1.23,0 2.526,-0.155 3.854,-0.462 l 1.619,-0.375 120.107,120.105 c 5.37628,7.58587 24.2132,29.3222 24.54671,26.4645 0.73472,8.93612 -29.12416,14.88291 -43.70386,21.7051 -15.91433,7.44669 -8.17384,12.29971 -7.96926,12.33937 2.084,0.405 64.57604,0.20838 64.57604,0.20838 l 93.97185,0.94564 c 5.16296,-0.49465 4.70731,-7.20666 0.3641,-9.24631 -11.96248,-5.77994 -49.05127,-14.78301 -53.27891,-18.72391 -7.46471,-2.36133 -17.78932,-8.41971 -17.78932,-8.41971 M 135.715,262.337 l -2.227,2.154 -24.363,-24.359 0.391,-1.633 c 1.389,-5.809 -0.291,-11.785 -4.49,-15.985 l -39.397,-39.396 11.714,-7.427 37.324,37.275 c 5.787,5.789 8.957,13.463 8.926,21.609 -0.002,0.533 0.209,1.045 0.586,1.421 l 8.215,8.213 c 0.764,0.765 1.998,0.783 2.785,0.042 l 38.283,-36.027 c 0.316,-0.298 0.527,-0.691 0.602,-1.119 l 3.82,-22.322 15.805,22.993 -57.879,54.465 c -0.033,0.034 -0.064,0.065 -0.095,0.096 z"
       sodipodi:nodetypes="cccccccccscccsssccccscccccccccccccccccccccccc"
       inkscape:export-filename="/home/egor/Документы/MEDIA/icons/constructions/svg/work--floor.png"
       inkscape:export-xdpi="78"
       inkscape:export-ydpi="78" /><path
       inkscape:connector-curvature="0"
       id="path15"
       d="m 180.933,280.482 c -0.774,-0.637 -1.905,-0.598 -2.638,0.091 l -7.057,6.641 c -0.395,0.371 -0.622,0.886 -0.629,1.427 -0.008,0.541 0.203,1.062 0.586,1.443 l 32.141,32.141 c 0.379,0.381 0.891,0.586 1.413,0.586 0.184,0 0.372,-0.024 0.554,-0.078 0.699,-0.2 1.234,-0.767 1.396,-1.476 l 0.026,-0.108 c 2.332,-9.951 -1.27,-20.567 -9.174,-27.047 l -16.618,-13.62 z"
       inkscape:export-filename="/home/egor/Документы/MEDIA/icons/constructions/svg/work--floor.png"
       inkscape:export-xdpi="78"
       inkscape:export-ydpi="78" /><rect
       style="fill:#000000;fill-opacity:1;fill-rule:nonzero;stroke:none"
       id="rect3037"
       width="44.639339"
       height="72.409332"
       x="242.02654"
       y="339.74542"
       ry="11.780884"
       inkscape:export-filename="/home/egor/Документы/MEDIA/icons/constructions/svg/work--floor.png"
       inkscape:export-xdpi="78"
       inkscape:export-ydpi="78" /></g><g
     id="g19" /><g
     id="g21" /><g
     id="g23" /><g
     id="g25" /><g
     id="g27" /><g
     id="g29" /><g
     id="g31" /><g
     id="g33" /><g
     id="g35" /><g
     id="g37" /><g
     id="g39" /><g
     id="g41" /><g
     id="g43" /><g
     id="g45" /><g
     id="g47" /></svg>